<?xml version="1.0" encoding="UTF-8" standalone="no"?>
<svg
   class="icon"
   viewBox="0 0 1024 1024"
   width="400"
   height="400"
   version="1.1"
   id="svg6"
   sodipodi:docname="45prvdakqe.svg"
   inkscape:version="1.2 (dc2aedaf03, 2022-05-15)"
   inkscape:export-filename="45prvdakqe.png"
   inkscape:export-xdpi="96"
   inkscape:export-ydpi="96"
   xmlns:inkscape="http://www.inkscape.org/namespaces/inkscape"
   xmlns:sodipodi="http://sodipodi.sourceforge.net/DTD/sodipodi-0.dtd"
   xmlns="http://www.w3.org/2000/svg"
   xmlns:svg="http://www.w3.org/2000/svg">
  <defs
     id="defs10" />
  <sodipodi:namedview
     id="namedview8"
     pagecolor="#ffffff"
     bordercolor="#666666"
     borderopacity="1.0"
     inkscape:showpageshadow="2"
     inkscape:pageopacity="0.0"
     inkscape:pagecheckerboard="0"
     inkscape:deskcolor="#d1d1d1"
     showgrid="false"
     inkscape:zoom="0.59"
     inkscape:cx="-229.66102"
     inkscape:cy="200.84746"
     inkscape:window-width="1920"
     inkscape:window-height="1051"
     inkscape:window-x="-9"
     inkscape:window-y="-9"
     inkscape:window-maximized="1"
     inkscape:current-layer="svg6" />
  <path
     d="m 283.00169,438.78983 c 48.6,0 88.1,-39.4 88.1,-88.1 0,-48.7 -39.4,-88.1 -88.1,-88.1 -48.7,0 -88.1,39.4 -88.1,88.1 0,48.7 39.4,88.1 88.1,88.1 z m 0,-116.2 c 15.4,0 28.2,12.3 28.2,28.2 0,15.9 -12.3,28.2 -28.2,28.2 -15.9,0 -28.2,-12.3 -28.2,-28.2 0,-15.9 12.3,-28.2 28.2,-28.2 z"
     fill="#e6e6e6"
     id="path2" />
  <path
     d="m 847.87966,162.95085 h -672.9 c -35.7,0 -65.2,31.7 -65.2,71.4 v 548.9 c 0,39.2 28.9,71.4 65.2,71.4 h 177.6 l 148.3,-172.4 -32.5,-218.7 145.5,-128.2 -55.1,141.2 83.1,210.1 -94.6,167.9 h 300.7 c 35.6,0.1 65,-31.6 65,-71.3 v -548.9 c 0,-39.2 -28.9,-71.4 -65.2,-71.4 z m -124.3,70.4 v 0.5 h 97.6 c 14.7,0 27.1,13.1 27.1,29.6 v 392.6 l -192.3,-249.3 67.4,-173.4 z m -398,550.4 h -124.4 c -14.7,0 -27.1,-13.1 -27.1,-29.6 v -9.6 l 124.3,-161.4 94.1,122.2 -67,78.4 z m 73.4,-349.4 33.5,224.7 -0.4,0.5 -128.1,-166.9 c -2.8,-3.5 -8.3,-3.5 -11.1,0 l -118.8,154.4 v -383.5 c 0,-16 11.9,-29.6 27.1,-29.6 h 425.4 z m 449.4,319.7 c 0,16.6 -11.9,29.6 -26.6,29.6 h -158.9 l 51.4,-91.5 -78.5,-198.6 6.4,-7.5 206.1,267.9 z"
     fill="#e6e6e6"
     id="path4" />
</svg>
